<mxfile host="app.diagrams.net" modified="2023-04-25T15:37:59.006Z" agent="Mozilla/5.0 (Windows NT 10.0; Win64; x64) AppleWebKit/537.36 (KHTML, like Gecko) Chrome/112.0.0.0 Safari/537.36" etag="rErMopcFoJOjcS2MXcw7" version="21.1.7" type="device">
  <diagram id="C5RBs43oDa-KdzZeNtuy" name="Page-1">
    <mxGraphModel dx="1434" dy="884" grid="1" gridSize="10" guides="1" tooltips="1" connect="1" arrows="1" fold="1" page="1" pageScale="1" pageWidth="827" pageHeight="1169" math="0" shadow="0">
      <root>
        <mxCell id="WIyWlLk6GJQsqaUBKTNV-0" />
        <mxCell id="WIyWlLk6GJQsqaUBKTNV-1" parent="WIyWlLk6GJQsqaUBKTNV-0" />
        <mxCell id="LCkXcD4m9W_phNAqdELi-30" style="rounded=0;orthogonalLoop=1;jettySize=auto;html=1;exitX=0.5;exitY=1;exitDx=0;exitDy=0;entryX=0.5;entryY=0;entryDx=0;entryDy=0;" edge="1" parent="WIyWlLk6GJQsqaUBKTNV-1" source="LCkXcD4m9W_phNAqdELi-21" target="LCkXcD4m9W_phNAqdELi-24">
          <mxGeometry relative="1" as="geometry" />
        </mxCell>
        <mxCell id="LCkXcD4m9W_phNAqdELi-31" value="resp" style="edgeLabel;html=1;align=center;verticalAlign=middle;resizable=0;points=[];" vertex="1" connectable="0" parent="LCkXcD4m9W_phNAqdELi-30">
          <mxGeometry x="0.6275" y="1" relative="1" as="geometry">
            <mxPoint as="offset" />
          </mxGeometry>
        </mxCell>
        <mxCell id="LCkXcD4m9W_phNAqdELi-32" style="rounded=0;orthogonalLoop=1;jettySize=auto;html=1;exitX=0.5;exitY=1;exitDx=0;exitDy=0;entryX=0.5;entryY=0;entryDx=0;entryDy=0;" edge="1" parent="WIyWlLk6GJQsqaUBKTNV-1" source="LCkXcD4m9W_phNAqdELi-21" target="LCkXcD4m9W_phNAqdELi-25">
          <mxGeometry relative="1" as="geometry" />
        </mxCell>
        <mxCell id="LCkXcD4m9W_phNAqdELi-33" value="resp" style="edgeLabel;html=1;align=center;verticalAlign=middle;resizable=0;points=[];" vertex="1" connectable="0" parent="LCkXcD4m9W_phNAqdELi-32">
          <mxGeometry x="0.4304" y="-2" relative="1" as="geometry">
            <mxPoint as="offset" />
          </mxGeometry>
        </mxCell>
        <mxCell id="LCkXcD4m9W_phNAqdELi-34" style="edgeStyle=orthogonalEdgeStyle;rounded=0;orthogonalLoop=1;jettySize=auto;html=1;exitX=1;exitY=0.25;exitDx=0;exitDy=0;entryX=0;entryY=0.25;entryDx=0;entryDy=0;" edge="1" parent="WIyWlLk6GJQsqaUBKTNV-1" source="LCkXcD4m9W_phNAqdELi-21" target="LCkXcD4m9W_phNAqdELi-22">
          <mxGeometry relative="1" as="geometry" />
        </mxCell>
        <mxCell id="LCkXcD4m9W_phNAqdELi-35" value="exec" style="edgeLabel;html=1;align=center;verticalAlign=middle;resizable=0;points=[];" vertex="1" connectable="0" parent="LCkXcD4m9W_phNAqdELi-34">
          <mxGeometry x="0.2545" y="-1" relative="1" as="geometry">
            <mxPoint as="offset" />
          </mxGeometry>
        </mxCell>
        <mxCell id="LCkXcD4m9W_phNAqdELi-39" value="resp" style="edgeStyle=orthogonalEdgeStyle;rounded=0;orthogonalLoop=1;jettySize=auto;html=1;exitX=1;exitY=0.75;exitDx=0;exitDy=0;entryX=0;entryY=0.75;entryDx=0;entryDy=0;" edge="1" parent="WIyWlLk6GJQsqaUBKTNV-1" source="LCkXcD4m9W_phNAqdELi-21" target="LCkXcD4m9W_phNAqdELi-22">
          <mxGeometry relative="1" as="geometry" />
        </mxCell>
        <mxCell id="LCkXcD4m9W_phNAqdELi-43" value="resp" style="rounded=0;orthogonalLoop=1;jettySize=auto;html=1;exitX=0.25;exitY=0;exitDx=0;exitDy=0;entryX=0.25;entryY=1;entryDx=0;entryDy=0;" edge="1" parent="WIyWlLk6GJQsqaUBKTNV-1" source="LCkXcD4m9W_phNAqdELi-21" target="LCkXcD4m9W_phNAqdELi-23">
          <mxGeometry relative="1" as="geometry" />
        </mxCell>
        <mxCell id="LCkXcD4m9W_phNAqdELi-21" value="kl.core.Core" style="rounded=0;whiteSpace=wrap;html=1;fillColor=#d5e8d4;strokeColor=#82b366;" vertex="1" parent="WIyWlLk6GJQsqaUBKTNV-1">
          <mxGeometry x="230" y="220" width="120" height="60" as="geometry" />
        </mxCell>
        <mxCell id="LCkXcD4m9W_phNAqdELi-37" value="exec" style="rounded=0;orthogonalLoop=1;jettySize=auto;html=1;exitX=0.5;exitY=0;exitDx=0;exitDy=0;entryX=0.55;entryY=0.95;entryDx=0;entryDy=0;entryPerimeter=0;" edge="1" parent="WIyWlLk6GJQsqaUBKTNV-1" source="LCkXcD4m9W_phNAqdELi-22" target="LCkXcD4m9W_phNAqdELi-36">
          <mxGeometry relative="1" as="geometry" />
        </mxCell>
        <mxCell id="LCkXcD4m9W_phNAqdELi-38" value="req" style="edgeStyle=orthogonalEdgeStyle;rounded=0;orthogonalLoop=1;jettySize=auto;html=1;exitX=0;exitY=0.5;exitDx=0;exitDy=0;entryX=1;entryY=0.5;entryDx=0;entryDy=0;" edge="1" parent="WIyWlLk6GJQsqaUBKTNV-1" source="LCkXcD4m9W_phNAqdELi-22" target="LCkXcD4m9W_phNAqdELi-21">
          <mxGeometry relative="1" as="geometry" />
        </mxCell>
        <mxCell id="LCkXcD4m9W_phNAqdELi-22" value="Einit" style="rounded=0;whiteSpace=wrap;html=1;fillColor=#d5e8d4;strokeColor=#82b366;" vertex="1" parent="WIyWlLk6GJQsqaUBKTNV-1">
          <mxGeometry x="460" y="220" width="120" height="60" as="geometry" />
        </mxCell>
        <mxCell id="LCkXcD4m9W_phNAqdELi-44" value="req" style="rounded=0;orthogonalLoop=1;jettySize=auto;html=1;exitX=0.5;exitY=1;exitDx=0;exitDy=0;entryX=0.5;entryY=0;entryDx=0;entryDy=0;" edge="1" parent="WIyWlLk6GJQsqaUBKTNV-1" source="LCkXcD4m9W_phNAqdELi-23" target="LCkXcD4m9W_phNAqdELi-21">
          <mxGeometry relative="1" as="geometry" />
        </mxCell>
        <mxCell id="LCkXcD4m9W_phNAqdELi-46" value="resp" style="rounded=0;orthogonalLoop=1;jettySize=auto;html=1;exitX=1;exitY=0.75;exitDx=0;exitDy=0;entryX=0.13;entryY=0.77;entryDx=0;entryDy=0;entryPerimeter=0;" edge="1" parent="WIyWlLk6GJQsqaUBKTNV-1" source="LCkXcD4m9W_phNAqdELi-23" target="LCkXcD4m9W_phNAqdELi-36">
          <mxGeometry relative="1" as="geometry" />
        </mxCell>
        <mxCell id="LCkXcD4m9W_phNAqdELi-23" value="kl.core.NameServer" style="rounded=0;whiteSpace=wrap;html=1;fillColor=#d5e8d4;strokeColor=#82b366;" vertex="1" parent="WIyWlLk6GJQsqaUBKTNV-1">
          <mxGeometry x="230" y="80" width="120" height="60" as="geometry" />
        </mxCell>
        <mxCell id="LCkXcD4m9W_phNAqdELi-26" value="resp" style="edgeStyle=orthogonalEdgeStyle;rounded=0;orthogonalLoop=1;jettySize=auto;html=1;exitX=1;exitY=0.25;exitDx=0;exitDy=0;entryX=0;entryY=0.25;entryDx=0;entryDy=0;" edge="1" parent="WIyWlLk6GJQsqaUBKTNV-1" source="LCkXcD4m9W_phNAqdELi-24" target="LCkXcD4m9W_phNAqdELi-25">
          <mxGeometry relative="1" as="geometry" />
        </mxCell>
        <mxCell id="LCkXcD4m9W_phNAqdELi-28" value="req" style="rounded=0;orthogonalLoop=1;jettySize=auto;html=1;exitX=0.25;exitY=0;exitDx=0;exitDy=0;entryX=0.25;entryY=1;entryDx=0;entryDy=0;" edge="1" parent="WIyWlLk6GJQsqaUBKTNV-1" source="LCkXcD4m9W_phNAqdELi-24" target="LCkXcD4m9W_phNAqdELi-21">
          <mxGeometry relative="1" as="geometry" />
        </mxCell>
        <mxCell id="LCkXcD4m9W_phNAqdELi-24" value="echo_mod_dyn.&lt;br&gt;DynServer" style="rounded=0;whiteSpace=wrap;html=1;fillColor=#fff2cc;strokeColor=#d6b656;" vertex="1" parent="WIyWlLk6GJQsqaUBKTNV-1">
          <mxGeometry x="230" y="480" width="120" height="60" as="geometry" />
        </mxCell>
        <mxCell id="LCkXcD4m9W_phNAqdELi-27" value="req" style="edgeStyle=orthogonalEdgeStyle;rounded=0;orthogonalLoop=1;jettySize=auto;html=1;exitX=0;exitY=0.75;exitDx=0;exitDy=0;entryX=1;entryY=0.75;entryDx=0;entryDy=0;" edge="1" parent="WIyWlLk6GJQsqaUBKTNV-1" source="LCkXcD4m9W_phNAqdELi-25" target="LCkXcD4m9W_phNAqdELi-24">
          <mxGeometry relative="1" as="geometry" />
        </mxCell>
        <mxCell id="LCkXcD4m9W_phNAqdELi-29" value="req" style="rounded=0;orthogonalLoop=1;jettySize=auto;html=1;exitX=0.25;exitY=0;exitDx=0;exitDy=0;entryX=0.25;entryY=1;entryDx=0;entryDy=0;" edge="1" parent="WIyWlLk6GJQsqaUBKTNV-1" source="LCkXcD4m9W_phNAqdELi-25" target="LCkXcD4m9W_phNAqdELi-21">
          <mxGeometry relative="1" as="geometry" />
        </mxCell>
        <mxCell id="LCkXcD4m9W_phNAqdELi-25" value="echo_mod_dyn.&lt;br&gt;DynClient" style="rounded=0;whiteSpace=wrap;html=1;fillColor=#fff2cc;strokeColor=#d6b656;" vertex="1" parent="WIyWlLk6GJQsqaUBKTNV-1">
          <mxGeometry x="440" y="480" width="120" height="60" as="geometry" />
        </mxCell>
        <mxCell id="LCkXcD4m9W_phNAqdELi-45" value="req" style="rounded=0;orthogonalLoop=1;jettySize=auto;html=1;exitX=0.07;exitY=0.4;exitDx=0;exitDy=0;exitPerimeter=0;entryX=1;entryY=0.25;entryDx=0;entryDy=0;" edge="1" parent="WIyWlLk6GJQsqaUBKTNV-1" source="LCkXcD4m9W_phNAqdELi-36" target="LCkXcD4m9W_phNAqdELi-23">
          <mxGeometry relative="1" as="geometry" />
        </mxCell>
        <mxCell id="LCkXcD4m9W_phNAqdELi-36" value="all" style="ellipse;shape=cloud;whiteSpace=wrap;html=1;fillColor=#dae8fc;strokeColor=#6c8ebf;" vertex="1" parent="WIyWlLk6GJQsqaUBKTNV-1">
          <mxGeometry x="460" y="70" width="110" height="70" as="geometry" />
        </mxCell>
      </root>
    </mxGraphModel>
  </diagram>
</mxfile>
